<!DOCTYPE svg PUBLIC "-//W3C//DTD SVG 1.1//EN" "http://www.w3.org/Graphics/SVG/1.1/DTD/svg11.dtd">
<!-- Uploaded to: SVG Repo, www.svgrepo.com, Transformed by: SVG Repo Mixer Tools -->
<svg fill="#ffffff" width="256px" height="256px" viewBox="-32 -32 704.00 704.00" xmlns="http://www.w3.org/2000/svg" stroke="#ffffff">
<g id="SVGRepo_bgCarrier" stroke-width="0" transform="translate(0,0), scale(1)">
<rect x="-32" y="-32" width="704.00" height="704.00" rx="70.4" fill="#14151a" strokewidth="0"/>
</g>
<g id="SVGRepo_tracerCarrier" stroke-linecap="round" stroke-linejoin="round"/>
<g id="SVGRepo_iconCarrier">
<path d="M476 480H324a36 36 0 0 1-36-36V96h-96v156a36 36 0 0 1-36 36H16a16 16 0 0 1-16-16v-32a16 16 0 0 1 16-16h112V68a36 36 0 0 1 36-36h152a36 36 0 0 1 36 36v348h96V260a36 36 0 0 1 36-36h140a16 16 0 0 1 16 16v32a16 16 0 0 1-16 16H512v156a36 36 0 0 1-36 36z"/>
</g>
</svg>